Metropolis-Regular.ufo
<glyph name="numbersign" format="1">
  <advance width="674"/>
  <unicode hex="0023"/>
  <outline>
    <contour>
      <point x="173" y="0" type="line"/>
      <point x="346" y="687" type="line"/>
      <point x="280" y="687" type="line"/>
      <point x="107" y="0" type="line"/>
    </contour>
    <contour>
      <point x="389" y="0" type="line"/>
      <point x="562" y="687" type="line"/>
      <point x="496" y="687" type="line"/>
      <point x="323" y="0" type="line"/>
    </contour>
    <contour>
      <point x="552" y="179" type="line"/>
      <point x="567" y="240" type="line"/>
      <point x="54" y="240" type="line"/>
      <point x="39" y="179" type="line"/>
    </contour>
    <contour>
      <point x="619" y="446" type="line"/>
      <point x="634" y="507" type="line"/>
      <point x="120" y="507" type="line"/>
      <point x="105" y="446" type="line"/>
    </contour>
  </outline>
</glyph>
<glyph name="percent" format="1">
  <advance width="796"/>
  <unicode hex="0025"/>
  <outline>
    <contour>
      <point x="197" y="0" type="line"/>
      <point x="667" y="687" type="line"/>
      <point x="601" y="687" type="line"/>
      <point x="131" y="0" type="line"/>
    </contour>
    <contour>
      <point x="681" y="-10"/>
      <point x="748" y="65"/>
      <point x="748" y="163" type="curve" smooth="yes"/>
      <point x="748" y="256"/>
      <point x="684" y="334"/>
      <point x="589" y="334" type="curve" smooth="yes"/>
      <point x="494" y="334"/>
      <point x="429" y="256"/>
      <point x="429" y="162" type="curve" smooth="yes"/>
      <point x="429" y="64"/>
      <point x="496" y="-10"/>
      <point x="588" y="-10" type="curve" smooth="yes"/>
    </contour>
    <contour>
      <point x="532" y="44"/>
      <point x="492" y="95"/>
      <point x="492" y="163" type="curve" smooth="yes"/>
      <point x="492" y="228"/>
      <point x="531" y="280"/>
      <point x="588" y="280" type="curve" smooth="yes"/>
      <point x="644" y="280"/>
      <point x="685" y="229"/>
      <point x="685" y="162" type="curve" smooth="yes"/>
      <point x="685" y="94"/>
      <point x="646" y="44"/>
      <point x="589" y="44" type="curve" smooth="yes"/>
    </contour>
    <contour>
      <point x="300" y="349"/>
      <point x="366" y="424"/>
      <point x="366" y="521" type="curve" smooth="yes"/>
      <point x="366" y="616"/>
      <point x="302" y="693"/>
      <point x="207" y="693" type="curve" smooth="yes"/>
      <point x="114" y="693"/>
      <point x="47" y="618"/>
      <point x="47" y="519" type="curve" smooth="yes"/>
      <point x="47" y="426"/>
      <point x="111" y="349"/>
      <point x="206" y="349" type="curve" smooth="yes"/>
    </contour>
    <contour>
      <point x="152" y="403"/>
      <point x="110" y="454"/>
      <point x="110" y="520" type="curve" smooth="yes"/>
      <point x="110" y="589"/>
      <point x="150" y="639"/>
      <point x="206" y="639" type="curve" smooth="yes"/>
      <point x="262" y="639"/>
      <point x="303" y="588"/>
      <point x="303" y="520" type="curve" smooth="yes"/>
      <point x="303" y="453"/>
      <point x="263" y="403"/>
      <point x="207" y="403" type="curve" smooth="yes"/>
    </contour>
  </outline>
</glyph>
<glyph name="ampersand" format="1">
  <advance width="670"/>
  <unicode hex="0026"/>
  <outline>
    <contour>
      <point x="427" y="-12"/>
      <point x="527" y="133"/>
      <point x="609" y="316" type="curve"/>
      <point x="544" y="345" type="line"/>
      <point x="483" y="184"/>
      <point x="385" y="55"/>
      <point x="260" y="55" type="curve" smooth="yes"/>
      <point x="182" y="55"/>
      <point x="116" y="103"/>
      <point x="116" y="184" type="curve" smooth="yes"/>
      <point x="116" y="258"/>
      <point x="178" y="313"/>
      <point x="274" y="349" type="curve" smooth="yes"/>
      <point x="390" y="393"/>
      <point x="477" y="434"/>
      <point x="477" y="536" type="curve" smooth="yes"/>
      <point x="477" y="622"/>
      <point x="407" y="695"/>
      <point x="315" y="695" type="curve" smooth="yes"/>
      <point x="212" y="695"/>
      <point x="140" y="624"/>
      <point x="140" y="534" type="curve" smooth="yes"/>
      <point x="140" y="474"/>
      <point x="166" y="421"/>
      <point x="221" y="353" type="curve" smooth="yes"/>
      <point x="295" y="261"/>
      <point x="374" y="177"/>
      <point x="557" y="-7" type="curve"/>
      <point x="628" y="26" type="line"/>
      <point x="458" y="198"/>
      <point x="375" y="284"/>
      <point x="288" y="388" type="curve" smooth="yes"/>
      <point x="238" y="446"/>
      <point x="215" y="493"/>
      <point x="215" y="534" type="curve" smooth="yes"/>
      <point x="215" y="593"/>
      <point x="258" y="628"/>
      <point x="315" y="628" type="curve" smooth="yes"/>
      <point x="366" y="628"/>
      <point x="402" y="587"/>
      <point x="402" y="534" type="curve" smooth="yes"/>
      <point x="402" y="470"/>
      <point x="350" y="440"/>
      <point x="231" y="396" type="curve" smooth="yes"/>
      <point x="103" y="349"/>
      <point x="41" y="280"/>
      <point x="41" y="182" type="curve" smooth="yes"/>
      <point x="41" y="62"/>
      <point x="135" y="-12"/>
      <point x="257" y="-12" type="curve" smooth="yes"/>
    </contour>
  </outline>
</glyph>
<glyph name="parenleft" format="1">
  <advance width="357"/>
  <unicode hex="0028"/>
  <outline>
    <contour>
      <point x="311" y="-127" type="line"/>
      <point x="202" y="-16"/>
      <point x="142" y="102"/>
      <point x="142" y="265" type="curve" smooth="yes"/>
      <point x="142" y="429"/>
      <point x="202" y="546"/>
      <point x="311" y="658" type="curve"/>
      <point x="271" y="700" type="line"/>
      <point x="137" y="588"/>
      <point x="62" y="438"/>
      <point x="62" y="265" type="curve" smooth="yes"/>
      <point x="62" y="93"/>
      <point x="137" y="-58"/>
      <point x="271" y="-170" type="curve"/>
    </contour>
  </outline>
</glyph>
<glyph name="parenright" format="1">
  <advance width="357"/>
  <unicode hex="0029"/>
  <outline>
    <contour>
      <point x="220" y="-58"/>
      <point x="295" y="93"/>
      <point x="295" y="265" type="curve" smooth="yes"/>
      <point x="295" y="438"/>
      <point x="220" y="588"/>
      <point x="86" y="700" type="curve"/>
      <point x="46" y="658" type="line"/>
      <point x="155" y="546"/>
      <point x="215" y="429"/>
      <point x="215" y="265" type="curve" smooth="yes"/>
      <point x="215" y="102"/>
      <point x="155" y="-16"/>
      <point x="46" y="-127" type="curve"/>
      <point x="86" y="-170" type="line"/>
    </contour>
  </outline>
</glyph>
<glyph name="plus" format="1">
  <advance width="593"/>
  <unicode hex="002B"/>
  <outline>
    <contour>
      <point x="526" y="297" type="line"/>
      <point x="526" y="371" type="line"/>
      <point x="67" y="371" type="line"/>
      <point x="67" y="297" type="line"/>
    </contour>
    <contour>
      <point x="334" y="105" type="line"/>
      <point x="334" y="564" type="line"/>
      <point x="259" y="564" type="line"/>
      <point x="259" y="105" type="line"/>
    </contour>
  </outline>
</glyph>
<glyph name="zero" format="1">
  <advance width="689"/>
  <unicode hex="0030"/>
  <outline>
    <contour>
      <point x="512" y="-12"/>
      <point x="630" y="135"/>
      <point x="630" y="344" type="curve" smooth="yes"/>
      <point x="630" y="552"/>
      <point x="512" y="699"/>
      <point x="345" y="699" type="curve" smooth="yes"/>
      <point x="177" y="699"/>
      <point x="59" y="552"/>
      <point x="59" y="344" type="curve" smooth="yes"/>
      <point x="59" y="135"/>
      <point x="177" y="-12"/>
      <point x="345" y="-12" type="curve" smooth="yes"/>
    </contour>
    <contour>
      <point x="224" y="60"/>
      <point x="138" y="178"/>
      <point x="138" y="344" type="curve" smooth="yes"/>
      <point x="138" y="510"/>
      <point x="224" y="627"/>
      <point x="345" y="627" type="curve" smooth="yes"/>
      <point x="466" y="627"/>
      <point x="551" y="510"/>
      <point x="551" y="344" type="curve" smooth="yes"/>
      <point x="551" y="178"/>
      <point x="466" y="60"/>
      <point x="345" y="60" type="curve" smooth="yes"/>
    </contour>
  </outline>
</glyph>
<glyph name="two" format="1">
  <advance width="589"/>
  <unicode hex="0032"/>
  <outline>
    <contour>
      <point x="523" y="0" type="line"/>
      <point x="523" y="74" type="line"/>
      <point x="174" y="74" type="line"/>
      <point x="354" y="230" type="line" smooth="yes"/>
      <point x="470" y="330"/>
      <point x="516" y="404"/>
      <point x="516" y="497" type="curve" smooth="yes"/>
      <point x="516" y="620"/>
      <point x="416" y="699"/>
      <point x="297" y="699" type="curve" smooth="yes"/>
      <point x="189" y="699"/>
      <point x="112" y="648"/>
      <point x="55" y="567" type="curve"/>
      <point x="110" y="522" type="line"/>
      <point x="157" y="586"/>
      <point x="214" y="629"/>
      <point x="294" y="629" type="curve" smooth="yes"/>
      <point x="367" y="629"/>
      <point x="437" y="580"/>
      <point x="437" y="496" type="curve" smooth="yes"/>
      <point x="437" y="428"/>
      <point x="397" y="362"/>
      <point x="300" y="279" type="curve" smooth="yes"/>
      <point x="49" y="65" type="line"/>
      <point x="49" y="0" type="line"/>
    </contour>
  </outline>
</glyph>
<glyph name="three" format="1">
  <advance width="586"/>
  <unicode hex="0033"/>
  <outline>
    <contour>
      <point x="433" y="-12"/>
      <point x="529" y="71"/>
      <point x="529" y="186" type="curve" smooth="yes"/>
      <point x="529" y="285"/>
      <point x="451" y="336"/>
      <point x="381" y="352" type="curve"/>
      <point x="452" y="373"/>
      <point x="514" y="425"/>
      <point x="514" y="513" type="curve" smooth="yes"/>
      <point x="514" y="623"/>
      <point x="418" y="699"/>
      <point x="287" y="699" type="curve" smooth="yes"/>
      <point x="180" y="699"/>
      <point x="104" y="647"/>
      <point x="52" y="578" type="curve"/>
      <point x="104" y="531" type="line"/>
      <point x="153" y="590"/>
      <point x="207" y="628"/>
      <point x="283" y="628" type="curve" smooth="yes"/>
      <point x="369" y="628"/>
      <point x="435" y="576"/>
      <point x="435" y="504" type="curve" smooth="yes"/>
      <point x="435" y="426"/>
      <point x="366" y="382"/>
      <point x="274" y="383" type="curve" smooth="yes"/>
      <point x="200" y="384" type="line"/>
      <point x="200" y="312" type="line"/>
      <point x="273" y="312" type="line" smooth="yes"/>
      <point x="381" y="312"/>
      <point x="450" y="271"/>
      <point x="450" y="190" type="curve" smooth="yes"/>
      <point x="450" y="112"/>
      <point x="386" y="59"/>
      <point x="290" y="59" type="curve" smooth="yes"/>
      <point x="206" y="59"/>
      <point x="139" y="99"/>
      <point x="94" y="157" type="curve"/>
      <point x="40" y="106" type="line"/>
      <point x="90" y="40"/>
      <point x="177" y="-12"/>
      <point x="290" y="-12" type="curve" smooth="yes"/>
    </contour>
  </outline>
</glyph>
<glyph name="four" format="1">
  <advance width="623"/>
  <unicode hex="0034"/>
  <outline>
    <contour>
      <point x="471" y="0" type="line"/>
      <point x="471" y="167" type="line"/>
      <point x="574" y="167" type="line"/>
      <point x="574" y="238" type="line"/>
      <point x="471" y="238" type="line"/>
      <point x="471" y="687" type="line"/>
      <point x="381" y="687" type="line"/>
      <point x="40" y="232" type="line"/>
      <point x="50" y="167" type="line"/>
      <point x="393" y="167" type="line"/>
      <point x="393" y="0" type="line"/>
    </contour>
    <contour>
      <point x="393" y="593" type="line"/>
      <point x="393" y="238" type="line"/>
      <point x="129" y="238" type="line"/>
    </contour>
  </outline>
</glyph>
<glyph name="six" format="1">
  <advance width="623"/>
  <unicode hex="0036"/>
  <outline>
    <contour>
      <point x="464" y="-12"/>
      <point x="563" y="88"/>
      <point x="563" y="215" type="curve" smooth="yes"/>
      <point x="563" y="351"/>
      <point x="458" y="429"/>
      <point x="333" y="429" type="curve" smooth="yes"/>
      <point x="244" y="429"/>
      <point x="167" y="382"/>
      <point x="127" y="303" type="curve"/>
      <point x="144" y="203" type="line"/>
      <point x="148" y="296"/>
      <point x="221" y="362"/>
      <point x="319" y="362" type="curve" smooth="yes"/>
      <point x="411" y="362"/>
      <point x="484" y="305"/>
      <point x="484" y="211" type="curve" smooth="yes"/>
      <point x="484" y="135"/>
      <point x="423" y="55"/>
      <point x="320" y="55" type="curve" smooth="yes"/>
      <point x="195" y="55"/>
      <point x="139" y="181"/>
      <point x="139" y="333" type="curve" smooth="yes"/>
      <point x="139" y="498"/>
      <point x="226" y="628"/>
      <point x="336" y="628" type="curve" smooth="yes"/>
      <point x="402" y="628"/>
      <point x="447" y="598"/>
      <point x="490" y="556" type="curve"/>
      <point x="533" y="617" type="line"/>
      <point x="482" y="666"/>
      <point x="422" y="699"/>
      <point x="338" y="699" type="curve" smooth="yes"/>
      <point x="182" y="699"/>
      <point x="60" y="538"/>
      <point x="60" y="333" type="curve" smooth="yes"/>
      <point x="60" y="139"/>
      <point x="135" y="-12"/>
      <point x="321" y="-12" type="curve" smooth="yes"/>
    </contour>
  </outline>
</glyph>
<glyph name="eight" format="1">
  <advance width="606"/>
  <unicode hex="0038"/>
  <outline>
    <contour>
      <point x="444" y="-12"/>
      <point x="554" y="63"/>
      <point x="554" y="180" type="curve" smooth="yes"/>
      <point x="554" y="266"/>
      <point x="486" y="327"/>
      <point x="403" y="355" type="curve"/>
      <point x="474" y="381"/>
      <point x="537" y="432"/>
      <point x="537" y="516" type="curve" smooth="yes"/>
      <point x="537" y="629"/>
      <point x="426" y="699"/>
      <point x="303" y="699" type="curve" smooth="yes"/>
      <point x="184" y="699"/>
      <point x="70" y="631"/>
      <point x="70" y="517" type="curve" smooth="yes"/>
      <point x="70" y="438"/>
      <point x="126" y="385"/>
      <point x="204" y="355" type="curve"/>
      <point x="120" y="328"/>
      <point x="52" y="266"/>
      <point x="52" y="180" type="curve" smooth="yes"/>
      <point x="52" y="64"/>
      <point x="161" y="-12"/>
      <point x="303" y="-12" type="curve" smooth="yes"/>
    </contour>
    <contour>
      <point x="208" y="59"/>
      <point x="131" y="110"/>
      <point x="131" y="185" type="curve" smooth="yes"/>
      <point x="131" y="268"/>
      <point x="232" y="316"/>
      <point x="303" y="318" type="curve"/>
      <point x="375" y="316"/>
      <point x="475" y="268"/>
      <point x="475" y="185" type="curve" smooth="yes"/>
      <point x="475" y="110"/>
      <point x="398" y="59"/>
      <point x="303" y="59" type="curve" smooth="yes"/>
    </contour>
    <contour>
      <point x="238" y="390"/>
      <point x="149" y="429"/>
      <point x="149" y="509" type="curve" smooth="yes"/>
      <point x="149" y="578"/>
      <point x="217" y="628"/>
      <point x="303" y="628" type="curve" smooth="yes"/>
      <point x="389" y="628"/>
      <point x="458" y="578"/>
      <point x="458" y="509" type="curve" smooth="yes"/>
      <point x="458" y="431"/>
      <point x="370" y="390"/>
      <point x="303" y="386" type="curve"/>
    </contour>
  </outline>
</glyph>
<glyph name="colon" format="1">
  <advance width="253"/>
  <unicode hex="003A"/>
  <outline>
    <contour>
      <point x="157" y="403"/>
      <point x="181" y="428"/>
      <point x="181" y="458" type="curve" smooth="yes"/>
      <point x="181" y="486"/>
      <point x="157" y="511"/>
      <point x="128" y="511" type="curve" smooth="yes"/>
      <point x="97" y="511"/>
      <point x="73" y="486"/>
      <point x="73" y="458" type="curve" smooth="yes"/>
      <point x="73" y="428"/>
      <point x="97" y="403"/>
      <point x="128" y="403" type="curve" smooth="yes"/>
    </contour>
    <contour>
      <point x="157" y="-12"/>
      <point x="181" y="13"/>
      <point x="181" y="43" type="curve" smooth="yes"/>
      <point x="181" y="71"/>
      <point x="157" y="96"/>
      <point x="128" y="96" type="curve" smooth="yes"/>
      <point x="97" y="96"/>
      <point x="73" y="71"/>
      <point x="73" y="43" type="curve" smooth="yes"/>
      <point x="73" y="13"/>
      <point x="97" y="-12"/>
      <point x="128" y="-12" type="curve" smooth="yes"/>
    </contour>
  </outline>
</glyph>
<glyph name="greater" format="1">
  <advance width="586"/>
  <unicode hex="003E"/>
  <outline>
    <contour>
      <point x="531" y="314" type="line"/>
      <point x="531" y="373" type="line"/>
      <point x="76" y="599" type="line"/>
      <point x="76" y="529" type="line"/>
      <point x="457" y="344" type="line"/>
      <point x="76" y="159" type="line"/>
      <point x="76" y="88" type="line"/>
    </contour>
  </outline>
</glyph>
<glyph name="at" format="1">
  <advance width="881"/>
  <unicode hex="0040"/>
  <outline>
    <contour>
      <point x="517" y="-116"/>
      <point x="585" y="-96"/>
      <point x="662" y="-47" type="curve"/>
      <point x="644" y="-20" type="line"/>
      <point x="571" y="-64"/>
      <point x="510" y="-81"/>
      <point x="428" y="-81" type="curve" smooth="yes"/>
      <point x="240" y="-81"/>
      <point x="82" y="75"/>
      <point x="82" y="260" type="curve" smooth="yes"/>
      <point x="82" y="466"/>
      <point x="255" y="639"/>
      <point x="460" y="639" type="curve" smooth="yes"/>
      <point x="645" y="639"/>
      <point x="801" y="493"/>
      <point x="801" y="319" type="curve" smooth="yes"/>
      <point x="801" y="179"/>
      <point x="732" y="125"/>
      <point x="677" y="125" type="curve" smooth="yes"/>
      <point x="637" y="125"/>
      <point x="611" y="149"/>
      <point x="611" y="191" type="curve" smooth="yes"/>
      <point x="611" y="216"/>
      <point x="633" y="322"/>
      <point x="664" y="481" type="curve"/>
      <point x="597" y="486" type="line"/>
      <point x="584" y="420" type="line"/>
      <point x="562" y="463"/>
      <point x="518" y="501"/>
      <point x="447" y="501" type="curve" smooth="yes"/>
      <point x="331" y="501"/>
      <point x="214" y="391"/>
      <point x="214" y="251" type="curve" smooth="yes"/>
      <point x="214" y="147"/>
      <point x="284" y="78"/>
      <point x="380" y="78" type="curve" smooth="yes"/>
      <point x="449" y="78"/>
      <point x="505" y="116"/>
      <point x="542" y="164" type="curve"/>
      <point x="553" y="111"/>
      <point x="595" y="78"/>
      <point x="657" y="78" type="curve" smooth="yes"/>
      <point x="745" y="78"/>
      <point x="837" y="156"/>
      <point x="837" y="319" type="curve" smooth="yes"/>
      <point x="837" y="512"/>
      <point x="666" y="675"/>
      <point x="462" y="675" type="curve" smooth="yes"/>
      <point x="235" y="675"/>
      <point x="44" y="485"/>
      <point x="44" y="259" type="curve" smooth="yes"/>
      <point x="44" y="55"/>
      <point x="219" y="-116"/>
      <point x="426" y="-116" type="curve" smooth="yes"/>
    </contour>
    <contour>
      <point x="330" y="137"/>
      <point x="286" y="184"/>
      <point x="286" y="255" type="curve" smooth="yes"/>
      <point x="286" y="355"/>
      <point x="364" y="442"/>
      <point x="456" y="442" type="curve" smooth="yes"/>
      <point x="535" y="442"/>
      <point x="570" y="391"/>
      <point x="562" y="311" type="curve" smooth="yes"/>
      <point x="552" y="214"/>
      <point x="492" y="137"/>
      <point x="398" y="137" type="curve" smooth="yes"/>
    </contour>
  </outline>
</glyph>
<glyph name="A" format="1">
  <advance width="755"/>
  <unicode hex="0041"/>
  <outline>
    <contour>
      <point x="591" y="156" type="line"/>
      <point x="591" y="230" type="line"/>
      <point x="172" y="230" type="line"/>
      <point x="172" y="156" type="line"/>
    </contour>
    <component base="V" xOffset="755" yOffset="687" xScale="-1" yScale="-1"/>
    <contour>
      <point x="377" y="687" type="move" name="top"/>
    </contour>
    <contour>
      <point x="723" y="0" type="move" name="bottom"/>
    </contour>
  </outline>
</glyph>
<glyph name="B" format="1">
  <advance width="682"/>
  <unicode hex="0042"/>
  <outline>
    <contour>
      <point x="421" y="0" type="line" smooth="yes"/>
      <point x="540" y="0"/>
      <point x="625" y="78"/>
      <point x="625" y="188" type="curve" smooth="yes"/>
      <point x="625" y="263"/>
      <point x="579" y="325"/>
      <point x="500" y="365" type="curve"/>
      <point x="562" y="401"/>
      <point x="598" y="443"/>
      <point x="598" y="516" type="curve" smooth="yes"/>
      <point x="598" y="616"/>
      <point x="520" y="687"/>
      <point x="409" y="687" type="curve" smooth="yes"/>
      <point x="94" y="687" type="line"/>
      <point x="94" y="0" type="line"/>
    </contour>
    <contour>
      <point x="172" y="325" type="line"/>
      <point x="401" y="325" type="line" smooth="yes"/>
      <point x="486" y="325"/>
      <point x="546" y="272"/>
      <point x="546" y="198" type="curve" smooth="yes"/>
      <point x="546" y="124"/>
      <point x="486" y="71"/>
      <point x="401" y="71" type="curve" smooth="yes"/>
      <point x="172" y="71" type="line"/>
    </contour>
    <contour>
      <point x="172" y="616" type="line"/>
      <point x="389" y="616" type="line" smooth="yes"/>
      <point x="465" y="616"/>
      <point x="519" y="570"/>
      <point x="519" y="506" type="curve" smooth="yes"/>
      <point x="519" y="442"/>
      <point x="465" y="396"/>
      <point x="389" y="396" type="curve" smooth="yes"/>
      <point x="172" y="396" type="line"/>
    </contour>
  </outline>
</glyph>
<glyph name="G" format="1">
  <advance width="745"/>
  <unicode hex="0047"/>
  <outline>
    <contour>
      <point x="499" y="-12"/>
      <point x="607" y="29"/>
      <point x="671" y="93" type="curve"/>
      <point x="618" y="147" type="line"/>
      <point x="568" y="94"/>
      <point x="479" y="60"/>
      <point x="404" y="60" type="curve" smooth="yes"/>
      <point x="256" y="60"/>
      <point x="131" y="190"/>
      <point x="131" y="344" type="curve" smooth="yes"/>
      <point x="131" y="497"/>
      <point x="256" y="627"/>
      <point x="404" y="627" type="curve" smooth="yes"/>
      <point x="479" y="627"/>
      <point x="568" y="593"/>
      <point x="618" y="540" type="curve"/>
      <point x="671" y="594" type="line"/>
      <point x="607" y="659"/>
      <point x="499" y="699"/>
      <point x="404" y="699" type="curve" smooth="yes"/>
      <point x="214" y="699"/>
      <point x="52" y="537"/>
      <point x="52" y="344" type="curve" smooth="yes"/>
      <point x="52" y="151"/>
      <point x="214" y="-12"/>
      <point x="404" y="-12" type="curve" smooth="yes"/>
    </contour>
    <contour>
      <point x="671" y="93" type="line"/>
      <point x="671" y="362" type="line"/>
      <point x="396" y="362" type="line"/>
      <point x="396" y="288" type="line"/>
      <point x="625" y="288" type="line"/>
      <point x="593" y="329" type="line"/>
      <point x="593" y="93" type="line"/>
    </contour>
    <contour>
      <point x="404" y="687" type="move" name="top"/>
    </contour>
    <contour>
      <point x="401" y="0" type="move" name="bottom"/>
    </contour>
  </outline>
</glyph>
<glyph name="H" format="1">
  <advance width="719"/>
  <unicode hex="0048"/>
  <outline>
    <contour>
      <point x="157" y="0" type="line"/>
      <point x="157" y="335" type="line"/>
      <point x="135" y="313" type="line"/>
      <point x="583" y="313" type="line"/>
      <point x="562" y="335" type="line"/>
      <point x="562" y="0" type="line"/>
      <point x="640" y="0" type="line"/>
      <point x="640" y="687" type="line"/>
      <point x="562" y="687" type="line"/>
      <point x="562" y="365" type="line"/>
      <point x="584" y="387" type="line"/>
      <point x="135" y="387" type="line"/>
      <point x="157" y="365" type="line"/>
      <point x="157" y="687" type="line"/>
      <point x="79" y="687" type="line"/>
      <point x="79" y="0" type="line"/>
    </contour>
  </outline>
</glyph>
<glyph name="K" format="1">
  <advance width="660"/>
  <unicode hex="004B"/>
  <outline>
    <contour>
      <point x="170" y="0" type="line"/>
      <point x="170" y="206" type="line"/>
      <point x="278" y="320" type="line"/>
      <point x="539" y="0" type="line"/>
      <point x="640" y="0" type="line"/>
      <point x="332" y="373" type="line"/>
      <point x="621" y="687" type="line"/>
      <point x="518" y="687" type="line"/>
      <point x="170" y="307" type="line"/>
      <point x="170" y="687" type="line"/>
      <point x="92" y="687" type="line"/>
      <point x="92" y="0" type="line"/>
    </contour>
    <contour>
      <point x="341" y="0" type="move" name="bottom"/>
    </contour>
  </outline>
</glyph>
<glyph name="N" format="1">
  <advance width="770"/>
  <unicode hex="004E"/>
  <outline>
    <contour>
      <point x="172" y="0" type="line"/>
      <point x="172" y="559" type="line"/>
      <point x="598" y="0" type="line"/>
      <point x="676" y="0" type="line"/>
      <point x="676" y="687" type="line"/>
      <point x="598" y="687" type="line"/>
      <point x="598" y="128" type="line"/>
      <point x="172" y="687" type="line"/>
      <point x="94" y="687" type="line"/>
      <point x="94" y="0" type="line"/>
    </contour>
    <contour>
      <point x="385" y="687" type="move" name="top"/>
    </contour>
    <contour>
      <point x="385" y="0" type="move" name="bottom"/>
    </contour>
  </outline>
</glyph>
<glyph name="R" format="1">
  <advance width="650"/>
  <unicode hex="0052"/>
  <outline>
    <contour>
      <point x="602" y="0" type="line"/>
      <point x="413" y="269" type="line"/>
      <point x="324" y="269" type="line"/>
      <point x="513" y="0" type="line"/>
    </contour>
    <component base="P"/>
    <contour>
      <point x="334" y="687" type="move" name="top"/>
    </contour>
    <contour>
      <point x="319" y="0" type="move" name="bottom"/>
    </contour>
  </outline>
</glyph>
<glyph name="V" format="1">
  <advance width="755"/>
  <unicode hex="0056"/>
  <outline>
    <contour>
      <point x="420" y="0" type="line"/>
      <point x="723" y="687" type="line"/>
      <point x="638" y="687" type="line"/>
      <point x="335" y="0" type="line"/>
    </contour>
    <contour>
      <point x="420" y="0" type="line"/>
      <point x="117" y="687" type="line"/>
      <point x="32" y="687" type="line"/>
      <point x="335" y="0" type="line"/>
    </contour>
  </outline>
</glyph>
<glyph name="X" format="1">
  <advance width="697"/>
  <unicode hex="0058"/>
  <outline>
    <contour>
      <point x="38" y="687" type="line"/>
      <point x="134" y="687" type="line"/>
      <point x="659" y="0" type="line"/>
      <point x="563" y="0" type="line"/>
    </contour>
    <contour>
      <point x="564" y="687" type="line"/>
      <point x="659" y="687" type="line"/>
      <point x="133" y="0" type="line"/>
      <point x="38" y="0" type="line"/>
    </contour>
  </outline>
</glyph>
<glyph name="Y" format="1">
  <advance width="671"/>
  <unicode hex="0059"/>
  <outline>
    <contour>
      <point x="377" y="0" type="line"/>
      <point x="377" y="280" type="line"/>
      <point x="653" y="687" type="line"/>
      <point x="559" y="687" type="line"/>
      <point x="336" y="354" type="line"/>
      <point x="115" y="687" type="line"/>
      <point x="18" y="687" type="line"/>
      <point x="295" y="280" type="line"/>
      <point x="295" y="0" type="line"/>
    </contour>
    <contour>
      <point x="336" y="687" type="move" name="top"/>
    </contour>
  </outline>
</glyph>
<glyph name="backslash" format="1">
  <advance width="415"/>
  <unicode hex="005C"/>
  <outline>
    <contour>
      <point x="431" y="-74" type="line"/>
      <point x="80" y="743" type="line"/>
      <point x="-5" y="743" type="line"/>
      <point x="346" y="-74" type="line"/>
    </contour>
  </outline>
</glyph>
<glyph name="c" format="1">
  <advance width="542"/>
  <unicode hex="0063"/>
  <outline>
    <contour>
      <point x="388" y="-12"/>
      <point x="454" y="18"/>
      <point x="503" y="67" type="curve"/>
      <point x="451" y="118" type="line"/>
      <point x="416" y="79"/>
      <point x="368" y="55"/>
      <point x="316" y="55" type="curve" smooth="yes"/>
      <point x="213" y="55"/>
      <point x="127" y="148"/>
      <point x="127" y="259" type="curve" smooth="yes"/>
      <point x="127" y="369"/>
      <point x="213" y="462"/>
      <point x="316" y="462" type="curve" smooth="yes"/>
      <point x="367" y="462"/>
      <point x="414" y="439"/>
      <point x="448" y="402" type="curve"/>
      <point x="500" y="453" type="line"/>
      <point x="451" y="500"/>
      <point x="386" y="529"/>
      <point x="316" y="529" type="curve" smooth="yes"/>
      <point x="171" y="529"/>
      <point x="48" y="406"/>
      <point x="48" y="259" type="curve" smooth="yes"/>
      <point x="48" y="112"/>
      <point x="171" y="-12"/>
      <point x="316" y="-12" type="curve" smooth="yes"/>
    </contour>
    <contour>
      <point x="296" y="517" type="move" name="top"/>
    </contour>
    <contour>
      <point x="306" y="0" type="move" name="bottom"/>
    </contour>
  </outline>
</glyph>
<glyph name="w" format="1">
  <advance width="833"/>
  <unicode hex="0077"/>
  <outline>
    <contour>
      <point x="279" y="0" type="line"/>
      <point x="418" y="413" type="line"/>
      <point x="555" y="0" type="line"/>
      <point x="626" y="0" type="line"/>
      <point x="800" y="517" type="line"/>
      <point x="720" y="517" type="line"/>
      <point x="591" y="100" type="line"/>
      <point x="450" y="517" type="line"/>
      <point x="385" y="517" type="line"/>
      <point x="244" y="100" type="line"/>
      <point x="115" y="517" type="line"/>
      <point x="35" y="517" type="line"/>
      <point x="208" y="0" type="line"/>
    </contour>
    <contour>
      <point x="418" y="517" type="move" name="top"/>
    </contour>
  </outline>
</glyph>
<glyph name="z" format="1">
  <advance width="514"/>
  <unicode hex="007A"/>
  <outline>
    <contour>
      <point x="462" y="0" type="line"/>
      <point x="462" y="71" type="line"/>
      <point x="154" y="71" type="line"/>
      <point x="460" y="458" type="line"/>
      <point x="460" y="517" type="line"/>
      <point x="60" y="517" type="line"/>
      <point x="60" y="446" type="line"/>
      <point x="359" y="446" type="line"/>
      <point x="54" y="59" type="line"/>
      <point x="54" y="0" type="line"/>
    </contour>
    <contour>
      <point x="264" y="517" type="move" name="top"/>
    </contour>
  </outline>
</glyph>
<glyph name="bar" format="1">
  <advance width="278"/>
  <unicode hex="007C"/>
  <outline>
    <contour>
      <point x="169" y="-74" type="line"/>
      <point x="169" y="743" type="line"/>
      <point x="109" y="743" type="line"/>
      <point x="109" y="-74" type="line"/>
    </contour>
  </outline>
</glyph>
<glyph name="braceright" format="1">
  <advance width="394"/>
  <unicode hex="007D"/>
  <outline>
    <contour>
      <point x="207" y="-149"/>
      <point x="253" y="-100"/>
      <point x="253" y="3" type="curve" smooth="yes"/>
      <point x="253" y="144" type="line" smooth="yes"/>
      <point x="253" y="211"/>
      <point x="280" y="238"/>
      <point x="351" y="238" type="curve"/>
      <point x="351" y="293" type="line"/>
      <point x="279" y="293"/>
      <point x="253" y="322"/>
      <point x="253" y="388" type="curve" smooth="yes"/>
      <point x="253" y="528" type="line" smooth="yes"/>
      <point x="253" y="632"/>
      <point x="206" y="680"/>
      <point x="52" y="697" type="curve"/>
      <point x="46" y="644" type="line"/>
      <point x="165" y="626"/>
      <point x="188" y="603"/>
      <point x="188" y="524" type="curve" smooth="yes"/>
      <point x="187" y="380" type="line" smooth="yes"/>
      <point x="187" y="317"/>
      <point x="213" y="283"/>
      <point x="262" y="266" type="curve"/>
      <point x="212" y="248"/>
      <point x="187" y="214"/>
      <point x="187" y="151" type="curve" smooth="yes"/>
      <point x="188" y="8" type="line" smooth="yes"/>
      <point x="188" y="-73"/>
      <point x="163" y="-95"/>
      <point x="46" y="-113" type="curve"/>
      <point x="52" y="-166" type="line"/>
    </contour>
  </outline>
</glyph>
<glyph name="sterling" format="1">
  <advance width="619"/>
  <unicode hex="00A3"/>
  <outline>
    <contour>
      <point x="573" y="0" type="line"/>
      <point x="573" y="74" type="line"/>
      <point x="175" y="74" type="line"/>
      <point x="198" y="50" type="line"/>
      <point x="198" y="463" type="line" smooth="yes"/>
      <point x="198" y="560"/>
      <point x="256" y="628"/>
      <point x="337" y="628" type="curve" smooth="yes"/>
      <point x="410" y="628"/>
      <point x="474" y="587"/>
      <point x="491" y="529" type="curve"/>
      <point x="548" y="585" type="line"/>
      <point x="516" y="652"/>
      <point x="429" y="699"/>
      <point x="337" y="699" type="curve" smooth="yes"/>
      <point x="210" y="699"/>
      <point x="120" y="601"/>
      <point x="120" y="463" type="curve" smooth="yes"/>
      <point x="120" y="74" type="line"/>
      <point x="55" y="38" type="line"/>
      <point x="55" y="0" type="line"/>
    </contour>
    <contour>
      <point x="400" y="261" type="line"/>
      <point x="400" y="328" type="line"/>
      <point x="58" y="328" type="line"/>
      <point x="58" y="261" type="line"/>
    </contour>
  </outline>
</glyph>
<glyph name="macron" format="1">
  <advance width="436"/>
  <unicode hex="00AF"/>
  <outline>
    <contour>
      <point x="373" y="594" type="line"/>
      <point x="373" y="649" type="line"/>
      <point x="63" y="649" type="line"/>
      <point x="63" y="594" type="line"/>
    </contour>
    <contour>
      <point x="218" y="704" type="move" name="top"/>
    </contour>
    <contour>
      <point x="218" y="517" type="move" name="_top"/>
    </contour>
  </outline>
</glyph>
<glyph name="cedilla" format="1">
  <advance width="312"/>
  <unicode hex="00B8"/>
  <outline>
    <contour>
      <point x="206" y="-192"/>
      <point x="249" y="-160"/>
      <point x="249" y="-111" type="curve" smooth="yes"/>
      <point x="249" y="-72"/>
      <point x="220" y="-45"/>
      <point x="180" y="-45" type="curve" smooth="yes"/>
      <point x="157" y="-45"/>
      <point x="129" y="-54"/>
      <point x="113" y="-67" type="curve"/>
      <point x="160" y="-67" type="line"/>
      <point x="193" y="11" type="line"/>
      <point x="141" y="11" type="line"/>
      <point x="108" y="-67" type="line"/>
      <point x="124" y="-84" type="line"/>
      <point x="133" y="-77"/>
      <point x="146" y="-73"/>
      <point x="158" y="-73" type="curve" smooth="yes"/>
      <point x="185" y="-73"/>
      <point x="197" y="-88"/>
      <point x="197" y="-107" type="curve" smooth="yes"/>
      <point x="197" y="-129"/>
      <point x="176" y="-145"/>
      <point x="147" y="-145" type="curve" smooth="yes"/>
      <point x="125" y="-145"/>
      <point x="102" y="-138"/>
      <point x="82" y="-122" type="curve"/>
      <point x="63" y="-164" type="line"/>
      <point x="83" y="-180"/>
      <point x="116" y="-192"/>
      <point x="151" y="-192" type="curve" smooth="yes"/>
    </contour>
    <contour>
      <point x="156" y="0" type="move" name="_bottom"/>
    </contour>
  </outline>
</glyph>
<glyph name="Oslash" format="1">
  <advance width="807"/>
  <unicode hex="00D8"/>
  <outline>
    <contour>
      <point x="146" y="0" type="line"/>
      <point x="747" y="687" type="line"/>
      <point x="662" y="687" type="line"/>
      <point x="61" y="0" type="line"/>
    </contour>
    <component base="O"/>
  </outline>
</glyph>
<glyph name="ae" format="1">
  <advance width="968"/>
  <unicode hex="00E6"/>
  <outline>
    <contour>
      <point x="383" y="-12"/>
      <point x="496" y="91"/>
      <point x="496" y="213" type="curve"/>
      <point x="496" y="315" type="line" smooth="yes"/>
      <point x="496" y="440"/>
      <point x="427" y="529"/>
      <point x="286" y="529" type="curve" smooth="yes"/>
      <point x="236" y="529"/>
      <point x="174" y="516"/>
      <point x="100" y="479" type="curve"/>
      <point x="130" y="418" type="line"/>
      <point x="177" y="442"/>
      <point x="229" y="465"/>
      <point x="281" y="465" type="curve" smooth="yes"/>
      <point x="393" y="465"/>
      <point x="421" y="385"/>
      <point x="421" y="315" type="curve" smooth="yes"/>
      <point x="421" y="203" type="line"/>
      <point x="421" y="122"/>
      <point x="348" y="54"/>
      <point x="262" y="54" type="curve" smooth="yes"/>
      <point x="175" y="54"/>
      <point x="123" y="92"/>
      <point x="123" y="156" type="curve" smooth="yes"/>
      <point x="123" y="218"/>
      <point x="188" y="262"/>
      <point x="265" y="262" type="curve" smooth="yes"/>
      <point x="335" y="262"/>
      <point x="399" y="250"/>
      <point x="454" y="230" type="curve"/>
      <point x="454" y="284" type="line"/>
      <point x="393" y="308"/>
      <point x="321" y="325"/>
      <point x="253" y="325" type="curve" smooth="yes"/>
      <point x="142" y="325"/>
      <point x="50" y="256"/>
      <point x="50" y="153" type="curve" smooth="yes"/>
      <point x="50" y="49"/>
      <point x="124" y="-12"/>
      <point x="249" y="-12" type="curve" smooth="yes"/>
    </contour>
    <component base="e" xOffset="373"/>
  </outline>
</glyph>
<glyph name="lslash" format="1">
  <advance width="307"/>
  <unicode hex="0142"/>
  <outline>
    <contour>
      <point x="270" y="354" type="line"/>
      <point x="270" y="429" type="line"/>
      <point x="37" y="309" type="line"/>
      <point x="37" y="234" type="line"/>
    </contour>
    <component base="l" xOffset="37"/>
  </outline>
</glyph>
<glyph name="OE" format="1">
  <advance width="1032"/>
  <unicode hex="0152"/>
  <outline>
    <contour>
      <point x="513" y="0" type="line"/>
      <point x="513" y="72" type="line"/>
      <point x="404" y="72" type="line" smooth="yes"/>
      <point x="256" y="72"/>
      <point x="131" y="180"/>
      <point x="131" y="334" type="curve" smooth="yes"/>
      <point x="131" y="487"/>
      <point x="256" y="615"/>
      <point x="404" y="615" type="curve" smooth="yes"/>
      <point x="513" y="615" type="line"/>
      <point x="513" y="687" type="line"/>
      <point x="404" y="687" type="line" smooth="yes"/>
      <point x="214" y="687"/>
      <point x="52" y="527"/>
      <point x="52" y="334" type="curve" smooth="yes"/>
      <point x="52" y="141"/>
      <point x="214" y="0"/>
      <point x="404" y="0" type="curve" smooth="yes"/>
    </contour>
    <component base="E" xOffset="405"/>
  </outline>
</glyph>
<glyph name="caron" format="1">
  <advance width="398"/>
  <unicode hex="02C7"/>
  <outline>
    <contour>
      <point x="233" y="576" type="line"/>
      <point x="335" y="713" type="line"/>
      <point x="277" y="713" type="line"/>
      <point x="198" y="627" type="line"/>
      <point x="120" y="713" type="line"/>
      <point x="63" y="713" type="line"/>
      <point x="163" y="576" type="line"/>
    </contour>
    <contour>
      <point x="198" y="704" type="move" name="top"/>
    </contour>
    <contour>
      <point x="198" y="517" type="move" name="_top"/>
    </contour>
  </outline>
</glyph>
<glyph name="perthousand" format="1">
  <advance width="1169"/>
  <unicode hex="2030"/>
  <outline>
    <contour>
      <point x="197" y="0" type="line"/>
      <point x="667" y="687" type="line"/>
      <point x="601" y="687" type="line"/>
      <point x="131" y="0" type="line"/>
    </contour>
    <contour>
      <point x="681" y="-10"/>
      <point x="748" y="65"/>
      <point x="748" y="163" type="curve" smooth="yes"/>
      <point x="748" y="256"/>
      <point x="684" y="334"/>
      <point x="589" y="334" type="curve" smooth="yes"/>
      <point x="494" y="334"/>
      <point x="429" y="256"/>
      <point x="429" y="162" type="curve" smooth="yes"/>
      <point x="429" y="64"/>
      <point x="496" y="-10"/>
      <point x="588" y="-10" type="curve" smooth="yes"/>
    </contour>
    <contour>
      <point x="532" y="44"/>
      <point x="492" y="95"/>
      <point x="492" y="163" type="curve" smooth="yes"/>
      <point x="492" y="228"/>
      <point x="531" y="280"/>
      <point x="588" y="280" type="curve" smooth="yes"/>
      <point x="644" y="280"/>
      <point x="685" y="229"/>
      <point x="685" y="162" type="curve" smooth="yes"/>
      <point x="685" y="94"/>
      <point x="646" y="44"/>
      <point x="589" y="44" type="curve" smooth="yes"/>
    </contour>
    <contour>
      <point x="300" y="349"/>
      <point x="366" y="424"/>
      <point x="366" y="521" type="curve" smooth="yes"/>
      <point x="366" y="616"/>
      <point x="302" y="693"/>
      <point x="207" y="693" type="curve" smooth="yes"/>
      <point x="114" y="693"/>
      <point x="47" y="618"/>
      <point x="47" y="519" type="curve" smooth="yes"/>
      <point x="47" y="426"/>
      <point x="111" y="349"/>
      <point x="206" y="349" type="curve" smooth="yes"/>
    </contour>
    <contour>
      <point x="152" y="403"/>
      <point x="110" y="454"/>
      <point x="110" y="520" type="curve" smooth="yes"/>
      <point x="110" y="589"/>
      <point x="150" y="639"/>
      <point x="206" y="639" type="curve" smooth="yes"/>
      <point x="262" y="639"/>
      <point x="303" y="588"/>
      <point x="303" y="520" type="curve" smooth="yes"/>
      <point x="303" y="453"/>
      <point x="263" y="403"/>
      <point x="207" y="403" type="curve" smooth="yes"/>
    </contour>
    <contour>
      <point x="1054" y="-10"/>
      <point x="1121" y="65"/>
      <point x="1121" y="163" type="curve" smooth="yes"/>
      <point x="1121" y="256"/>
      <point x="1057" y="334"/>
      <point x="962" y="334" type="curve" smooth="yes"/>
      <point x="867" y="334"/>
      <point x="802" y="256"/>
      <point x="802" y="162" type="curve" smooth="yes"/>
      <point x="802" y="64"/>
      <point x="869" y="-10"/>
      <point x="961" y="-10" type="curve" smooth="yes"/>
    </contour>
    <contour>
      <point x="905" y="44"/>
      <point x="865" y="95"/>
      <point x="865" y="163" type="curve" smooth="yes"/>
      <point x="865" y="228"/>
      <point x="904" y="280"/>
      <point x="961" y="280" type="curve" smooth="yes"/>
      <point x="1017" y="280"/>
      <point x="1058" y="229"/>
      <point x="1058" y="162" type="curve" smooth="yes"/>
      <point x="1058" y="94"/>
      <point x="1019" y="44"/>
      <point x="962" y="44" type="curve" smooth="yes"/>
    </contour>
  </outline>
</glyph>
<glyph name="euro" format="1">
  <advance width="680"/>
  <unicode hex="20AC"/>
  <outline>
    <contour>
      <point x="472" y="236" type="line"/>
      <point x="472" y="303" type="line"/>
      <point x="-24" y="303" type="line"/>
      <point x="-24" y="236" type="line"/>
    </contour>
    <contour>
      <point x="472" y="403" type="line"/>
      <point x="472" y="470" type="line"/>
      <point x="-24" y="470" type="line"/>
      <point x="-24" y="403" type="line"/>
    </contour>
    <component base="C"/>
  </outline>
</glyph>
<glyph name="minus" format="1">
  <advance width="593"/>
  <unicode hex="2212"/>
  <outline>
    <contour>
      <point x="526" y="297" type="line"/>
      <point x="526" y="371" type="line"/>
      <point x="67" y="371" type="line"/>
      <point x="67" y="297" type="line"/>
    </contour>
  </outline>
</glyph>
<glyph name="_areas" format="2">
	<advance width="354"/>
	<outline>
		<contour>
			<point x="67" y="739" type="line"/>
			<point x="31" y="743" type="line"/>
			<point x="31" y="542" type="line"/>
			<point x="67" y="544" type="line"/>
			<point x="67" y="549" type="line"/>
			<point x="67" y="554" type="line"/>
			<point x="67" y="559" type="line"/>
			<point x="67" y="564" type="line"/>
			<point x="67" y="569" type="line"/>
			<point x="67" y="574" type="line"/>
			<point x="67" y="579" type="line"/>
			<point x="67" y="584" type="line"/>
			<point x="67" y="589" type="line"/>
			<point x="67" y="594" type="line"/>
			<point x="67" y="599" type="line"/>
			<point x="67" y="604" type="line"/>
			<point x="67" y="609" type="line"/>
			<point x="67" y="614" type="line"/>
			<point x="67" y="619" type="line"/>
			<point x="62" y="624" type="line"/>
			<point x="55" y="629" type="line"/>
			<point x="48" y="634" type="line"/>
			<point x="42" y="639" type="line"/>
			<point x="36" y="644" type="line"/>
			<point x="31" y="649" type="line"/>
			<point x="36" y="654" type="line"/>
			<point x="41" y="659" type="line"/>
			<point x="46" y="664" type="line"/>
			<point x="51" y="669" type="line"/>
			<point x="56" y="674" type="line"/>
			<point x="61" y="679" type="line"/>
			<point x="66" y="684" type="line"/>
			<point x="67" y="689" type="line"/>
			<point x="67" y="694" type="line"/>
			<point x="67" y="699" type="line"/>
			<point x="67" y="704" type="line"/>
			<point x="67" y="709" type="line"/>
			<point x="67" y="714" type="line"/>
			<point x="67" y="719" type="line"/>
			<point x="67" y="724" type="line"/>
			<point x="67" y="729" type="line"/>
			<point x="67" y="734" type="line"/>
		</contour>
		<contour>
			<point x="287" y="739" type="line"/>
			<point x="323" y="743" type="line"/>
			<point x="323" y="542" type="line"/>
			<point x="287" y="544" type="line"/>
			<point x="287" y="549" type="line"/>
			<point x="287" y="554" type="line"/>
			<point x="287" y="559" type="line"/>
			<point x="287" y="564" type="line"/>
			<point x="287" y="569" type="line"/>
			<point x="287" y="574" type="line"/>
			<point x="287" y="579" type="line"/>
			<point x="287" y="584" type="line"/>
			<point x="287" y="589" type="line"/>
			<point x="287" y="594" type="line"/>
			<point x="287" y="599" type="line"/>
			<point x="287" y="604" type="line"/>
			<point x="287" y="609" type="line"/>
			<point x="288" y="614" type="line"/>
			<point x="293" y="619" type="line"/>
			<point x="298" y="624" type="line"/>
			<point x="303" y="629" type="line"/>
			<point x="308" y="634" type="line"/>
			<point x="313" y="639" type="line"/>
			<point x="318" y="644" type="line"/>
			<point x="323" y="649" type="line"/>
			<point x="318" y="654" type="line"/>
			<point x="313" y="659" type="line"/>
			<point x="308" y="664" type="line"/>
			<point x="303" y="669" type="line"/>
			<point x="298" y="674" type="line"/>
			<point x="293" y="679" type="line"/>
			<point x="288" y="684" type="line"/>
			<point x="287" y="689" type="line"/>
			<point x="287" y="694" type="line"/>
			<point x="287" y="699" type="line"/>
			<point x="287" y="704" type="line"/>
			<point x="287" y="709" type="line"/>
			<point x="287" y="714" type="line"/>
			<point x="287" y="719" type="line"/>
			<point x="287" y="724" type="line"/>
			<point x="287" y="729" type="line"/>
			<point x="287" y="734" type="line"/>
		</contour>
	</outline>
</glyph>
<glyph name="lowercase_loop_reverse" format="1">
  <advance width="608"/>
  <outline>
    <contour>
      <point x="464" y="-12"/>
      <point x="554" y="100"/>
      <point x="554" y="259" type="curve" smooth="yes"/>
      <point x="554" y="417"/>
      <point x="464" y="529"/>
      <point x="327" y="529" type="curve" smooth="yes"/>
      <point x="191" y="529"/>
      <point x="89" y="417"/>
      <point x="89" y="259" type="curve" smooth="yes"/>
      <point x="89" y="100"/>
      <point x="191" y="-12"/>
      <point x="327" y="-12" type="curve" smooth="yes"/>
    </contour>
    <contour>
      <point x="240" y="55"/>
      <point x="168" y="140"/>
      <point x="168" y="259" type="curve" smooth="yes"/>
      <point x="168" y="378"/>
      <point x="240" y="462"/>
      <point x="341" y="462" type="curve" smooth="yes"/>
      <point x="443" y="462"/>
      <point x="515" y="378"/>
      <point x="515" y="259" type="curve" smooth="yes"/>
      <point x="515" y="140"/>
      <point x="443" y="55"/>
      <point x="341" y="55" type="curve" smooth="yes"/>
    </contour>
  </outline>
</glyph>
